<?xml version="1.0" encoding="UTF-8" standalone="no"?>
<!-- Created with Inkscape (http://www.inkscape.org/) -->

<svg
   width="745mm"
   height="512mm"
   viewBox="0 0 745 512"
   version="1.1"
   id="svg1"
   xml:space="preserve"
   inkscape:export-filename="employee-contribution.svg"
   inkscape:export-xdpi="96"
   inkscape:export-ydpi="96"
   sodipodi:docname="account-recei.svg"
   inkscape:version="1.3.2 (1:1.3.2+202311252150+091e20ef0f)"
   xmlns:inkscape="http://www.inkscape.org/namespaces/inkscape"
   xmlns:sodipodi="http://sodipodi.sourceforge.net/DTD/sodipodi-0.dtd"
   xmlns="http://www.w3.org/2000/svg"
   xmlns:svg="http://www.w3.org/2000/svg"><sodipodi:namedview
     id="namedview1"
     pagecolor="#ffffff"
     bordercolor="#000000"
     borderopacity="0.25"
     inkscape:showpageshadow="2"
     inkscape:pageopacity="0.0"
     inkscape:pagecheckerboard="0"
     inkscape:deskcolor="#d1d1d1"
     inkscape:document-units="mm"
     showgrid="false"
     inkscape:zoom="0.3317627"
     inkscape:cx="1424.2107"
     inkscape:cy="920.8389"
     inkscape:window-width="1600"
     inkscape:window-height="871"
     inkscape:window-x="0"
     inkscape:window-y="1"
     inkscape:window-maximized="1"
     inkscape:current-layer="layer1-2"><inkscape:grid
       id="grid67"
       units="mm"
       originx="0"
       originy="0"
       spacingx="0.99999999"
       spacingy="0.99999997"
       empcolor="#0099e5"
       empopacity="0.30196078"
       color="#0099e5"
       opacity="0.14901961"
       empspacing="5"
       dotted="false"
       gridanglex="30"
       gridanglez="30"
       visible="false" /></sodipodi:namedview><defs
     id="defs1" /><g
     inkscape:label="Layer 1"
     inkscape:groupmode="layer"
     id="layer1"><g
       style="enable-background:new"
       id="g1"
       transform="matrix(0.74056976,0,0,0.74056976,104.77757,29.373659)"><g
         inkscape:label="Layer 1"
         id="layer1-2"
         transform="translate(107.87613,-443.52486)"
         style="opacity:1"><g
           transform="scale(0.99730031,1.002707)"
           style="font-style:normal;font-variant:normal;font-weight:normal;font-stretch:normal;font-size:55.2433px;line-height:124%;font-family:'URW Gothic L';-inkscape-font-specification:'URW Gothic L';letter-spacing:0px;word-spacing:0px;fill:#005daa;fill-opacity:1;stroke:#005daa;stroke-width:2;stroke-linecap:butt;stroke-linejoin:miter;stroke-miterlimit:4;stroke-dasharray:none;stroke-opacity:1"
           id="text4246" /><text
           xml:space="preserve"
           style="font-style:normal;font-weight:normal;line-height:0%;font-family:sans-serif;letter-spacing:0px;word-spacing:0px;fill:#000000;fill-opacity:1;stroke:none;stroke-width:1px;stroke-linecap:butt;stroke-linejoin:miter;stroke-opacity:1"
           x="607.93494"
           y="523.50122"
           id="text4212"><tspan
             sodipodi:role="line"
             id="tspan4214"
             x="607.93494"
             y="523.50122"
             style="font-size:28.3465px;line-height:1.24"> </tspan></text><text
           xml:space="preserve"
           style="font-size:64.3086px;opacity:1;fill:#12437b;fill-opacity:1;stroke:#12437b;stroke-width:0.519552;stroke-opacity:0.952941"
           x="272.10858"
           y="1002.0834"
           id="text67"><tspan
             sodipodi:role="line"
             id="tspan67"
             style="font-style:normal;font-variant:normal;font-weight:600;font-stretch:normal;font-size:64.3086px;font-family:FreeSans;-inkscape-font-specification:'FreeSans Semi-Bold';text-align:center;text-anchor:middle;stroke-width:0.519552"
             x="272.10858"
             y="1002.0834">COLLECTION</tspan></text><path
           id="path44"
           style="display:inline;fill:#12437b;fill-opacity:0;stroke-width:0.823151"
           d="m 269.72473,543.7331 c 0,0 -4.04133,0.6745 -9.42024,1.46966 0.16001,0.9705 -0.49278,2.16199 -2.25776,2.86557 -0.71999,0.28686 -1.44798,0.54686 -2.20474,0.72197 -0.88524,0.21516 -1.78124,0.36542 -2.67587,0.53588 -1.09702,0.22013 -2.20071,0.42014 -3.27567,0.73484 -1.23821,0.34501 -2.48137,0.68508 -3.75652,0.8664 -2.03704,0.25148 -4.05109,0.13979 -6.09789,0.0882 -2.49376,-0.0658 -4.98757,-0.14831 -7.48252,-0.12666 -1.36869,-0.003 -2.73703,-0.0108 -4.10549,-0.0217 -1.98324,0.0805 -3.96637,0.16607 -5.94996,0.23597 -0.78546,0.0278 -1.37944,-0.13139 -1.88467,-0.35458 -0.60576,-0.0158 -1.2115,-0.0278 -1.8172,-0.0481 -2.61907,-0.0965 -5.2475,-0.17449 -7.84909,-0.51023 -1.73489,-0.22386 -2.60794,-1.06116 -2.75789,-1.93975 -8.09679,-0.44698 -4.99369,1.94912 -11.89245,0.0108 l -58.27833,103.8461 c 0,0 -12.43288,76.28066 31.4606,94.25968 43.89353,17.9791 43.71012,25.64804 63.7563,21.6888 20.04622,-3.95922 64.68155,-26.78411 71.00725,-50.73722 6.32563,-23.953 23.18751,-36.3862 6.17188,-75.8371 -17.01579,-39.45108 -50.99087,-93.52534 -50.99087,-93.52534 z"
           sodipodi:nodetypes="ccsccccccccccscccsssscc" /><path
           style="display:inline;fill:#ffccaa;stroke-width:0.8753"
           d="m 194.59488,545.71873 62.25213,0.0402"
           id="path47" /><path
           style="display:inline;fill:#ffb278;fill-opacity:1;stroke-width:0.8753"
           d="m 194.97103,546.06861 c 0,0 -44.13831,-56.95889 -19.78652,-53.54435 24.35189,3.41459 27.54439,6.90214 27.54439,6.90214 0,0 11.89412,-21.38001 16.39515,-23.83345 4.501,-2.45342 12.87449,4.08495 22.57484,14.67927 9.12028,9.96076 22.6223,3.3625 22.6223,3.3625 -4.83347,1.09476 15.59946,5.71993 11.75867,13.88191 -3.8408,8.16194 -19.84244,38.35027 -19.84244,38.35027 z"
           id="path48"
           sodipodi:nodetypes="cscsscscc" /><path
           style="display:inline;fill:#ffb278;fill-opacity:1;stroke-width:0.348494"
           d="m 195.09663,545.90741 c 0,0 -67.11016,98.45305 -60.65925,143.92523 6.45094,45.47223 60.10496,74.91729 60.10496,74.91729 0,0 91.37729,13.07694 109.23137,-42.24703 17.85404,-55.32396 14.50887,-48.98681 14.50887,-48.98681 0,0 -26.51862,-64.83997 -42.16747,-94.51486 -15.64885,-29.67491 -21.13666,-33.57622 -21.13666,-33.57622 0,0 -20.30881,-4.42042 -59.88182,0.4824 z"
           id="path3"
           sodipodi:nodetypes="cscscscc" /><path
           id="path1"
           style="display:inline;fill:#123e6d;fill-opacity:1;stroke-width:0.822409"
           d="m 126.33906,674.57505 c -8e-5,53.49704 45.00038,97.41229 98.61939,97.41221 53.61904,1.4e-4 97.08588,-43.36786 97.0858,-96.86491 -0.008,-15.18981 -3.51659,-30.17317 -11.55402,-43.07378 l -53.2998,-85.54981 c 5.8985,16.26077 56.71315,102.40779 56.30516,127.42829 -5.6e-4,48.58128 -39.47361,87.9638 -88.16563,87.96346 -48.69145,-5.3e-4 -88.1635,-39.3828 -88.16404,-87.96346 0.0857,-20.06565 9.6126,-34.23808 20.27266,-55.00276 l 36.73927,-71.56435 c -17.95056,32.46816 -65.46561,73.79856 -67.83879,127.21511 z"
           sodipodi:nodetypes="cccsccccscc" /><g
           id="g45"
           transform="matrix(3.5643253,0,0,3.5562168,-151.46842,57.194558)"
           inkscape:label="peso sign"
           style="fill:#123e6d;fill-opacity:1"><rect
             style="opacity:1;fill:#123e6d;fill-opacity:1;stroke-width:0.264831"
             id="rect45"
             width="6.2114553"
             height="0.39080802"
             x="100.74814"
             y="164.4523" /><rect
             style="opacity:1;fill:#123e6d;fill-opacity:1;stroke-width:0.558085"
             id="rect45-6"
             width="11.864861"
             height="0.90856415"
             x="100.74658"
             y="166.97658" /><rect
             style="opacity:1;fill:#123e6d;fill-opacity:1;stroke-width:0.941038"
             id="rect45-6-3"
             width="14.614236"
             height="2.097275"
             x="-176.80728"
             y="101.3574"
             transform="matrix(-0.00888561,-0.99996052,0.99970259,0.02438702,0,0)" /><rect
             style="opacity:1;fill:#123e6d;fill-opacity:1;stroke-width:0.558287"
             id="rect45-6-7"
             width="11.873464"
             height="0.90856415"
             x="100.74912"
             y="169.38071" /><path
             style="opacity:1;fill:#123e6d;fill-opacity:1;stroke-width:0.264583"
             d="m 101.45824,181.30284 -0.0939,-2.79597 c 0,0 -0.004,1.53998 -0.26985,1.8305 -0.26539,0.29052 -0.67726,0.5762 -1.16029,0.56435 -0.483034,-0.0118 -0.731649,0.005 -0.731649,0.005 l 0.01585,0.4312 z"
             id="path46"
             sodipodi:nodetypes="ccscccc"
             transform="translate(1.5246916,-2.0304385)" /><path
             style="fill:#123e6d;fill-opacity:1;stroke-width:0.26485"
             d="m 103.42608,181.35299 0.0262,-2.573 c 0,0 0.0303,1.3065 0.29575,1.59761 0.26539,0.2911 0.66353,0.53974 1.14656,0.52786 0.48303,-0.0118 0.67157,0.008 0.67157,0.008 l 0.01,0.43181 z"
             id="path46-2"
             sodipodi:nodetypes="ccscccc"
             transform="translate(1.5246916,-2.0304385)" /><path
             style="opacity:1;fill:#123e6d;fill-opacity:1;stroke-width:0.317161"
             d="m 103.47687,166.86862 -0.0457,11.36176 -0.14659,-11.37109 z"
             id="path47-9"
             transform="translate(1.5246916,-2.0304385)" /><path
             style="opacity:1;fill:#123e6d;fill-opacity:1;stroke-width:0.26535"
             d="m 101.34583,164.82993 c 0,0 0.60334,0.0769 0.75862,0.166 0.15529,0.0891 0.4153,0.17053 0.54161,0.51533 0.12631,0.34479 0.151,0.35709 0.151,0.35709 l 0.0124,-1.05423 z"
             id="path45"
             sodipodi:nodetypes="cssccc" /><path
             style="display:inline;opacity:1;fill:#123e6d;fill-opacity:1;stroke-width:0.262069"
             d="m 103.45998,167.57821 c 0,0 2.6756,-0.73406 3.648,0.749 0.97239,1.48306 0.87959,2.10565 0.77214,3.06933 -0.10744,0.96367 -0.80711,2.20061 -2.02823,2.51102 -1.22111,0.31041 -2.73445,-0.45923 -2.37673,-0.13464 0.35772,0.32459 -0.0384,-0.0644 -0.0384,-0.0644 l 0.008,0.66938 c 0,0 3.17594,0.76151 4.90031,-0.18949 1.92078,-1.05932 2.18414,-2.06242 2.16437,-4.10186 -0.0194,-2.00487 -2.57082,-3.69022 -5.12278,-3.59387 -2.46284,-0.0539 -1.94717,-0.0123 -1.94717,-0.0123 z"
             id="path48-9"
             sodipodi:nodetypes="cssssccssccc"
             transform="translate(1.5246916,-2.0304385)" /></g><path
           id="path2"
           style="fill:#123e6d;fill-opacity:1;stroke-width:0.739702"
           d="m 193.4638,544.42737 c -15.59588,3.30778 -27.43569,7.25369 -27.45528,13.24397 -3.1e-4,9.87418 28.57337,-13.63652 59.40848,-13.63652 30.83511,0 52.25483,23.5107 52.25456,13.63652 -0.0834,-5.48998 -7.50793,-9.96214 -21.04646,-13.33037 0.55392,1.56965 -0.40517,1.44869 -0.40004,2.73022 9.34571,2.59253 15.31313,6.98755 15.37059,10.68381 0.001,7.66055 -17.29932,-13.07826 -44.47278,-13.07817 -27.17411,1.8e-4 -53.92943,20.73888 -53.92764,13.07817 0.0417,-4.58322 8.11168,-8.86474 21.5617,-11.4394 z"
           sodipodi:nodetypes="ccsccccsccc" /><path
           id="path42"
           style="fill:#123e6d;fill-opacity:1;stroke-width:0.879877"
           d="m 222.5723,468.87087 c -2.70534,-0.0726 -7.9233,2.03135 -10.12172,5.96234 -8.79386,15.72384 -9.34794,24.08572 -9.34794,24.08572 0,0 -12.35718,-7.80333 -29.77841,-8.9202 -17.42137,-1.11687 -3.55309,24.1517 -3.55309,24.1517 l 25.40744,33.00295 60.93705,0.24676 c 0,0 20.95508,-33.2658 22.17163,-39.34925 1.21649,-6.0835 -8.01803,-16.52908 -19.25336,-13.7193 -11.23523,2.8098 -19.74327,-8.50686 -19.74327,-8.50686 0,0 -8.6022,-16.73666 -16.71833,-16.95391 z m 0.16631,6.86699 c 7.40996,0.19849 15.45446,12.70758 15.45446,12.70758 0,0 8.13377,9.42239 18.39148,6.8571 10.25785,-2.56531 16.81866,7.82505 15.70798,13.37924 -0.0447,0.22424 -1.25875,5.84583 -16.34998,36.85149 l -60.9533,0.46588 -20.26626,-31.69253 c 0,0 -13.35251,-22.37549 2.55309,-21.35584 15.90549,1.01969 25.67323,7.44079 25.67323,7.44079 0,0 4.88421,-5.47315 12.91291,-19.82893 2.00718,-3.58893 4.4064,-4.89088 6.87639,-4.82478 z"
           sodipodi:nodetypes="sscscccsscsscsscccscssc" /><g
           id="g6"
           transform="matrix(-1.7809811,0,0,1.3501952,730.70344,533.67093)"><path
             style="fill:#123e6d;fill-opacity:1;stroke:#fcfcfc;stroke-width:0.0499999;stroke-linejoin:round"
             d="m 308.05506,199.49046 c 0,0 1.26405,3.53494 1.30507,5.95128 0.0391,2.30513 -0.28569,3.36006 -0.28569,3.36006 l 28.78053,-20.41903 c 0,0 6.05772,-3.67229 8.26609,0.58608 2.2084,4.25836 3.81325,6.87518 -5.03425,14.75346 -8.84749,7.87829 -55.38693,46.17649 -63.84931,49.88194 -8.46235,3.70544 -15.93349,9.23754 -29.72676,4.5017 -13.79328,-4.73585 -16.77075,-7.85817 -25.72933,-10.49541 -8.95858,-2.63723 -25.97979,-7.70371 -25.97979,-7.70371 l -1.06663,7.29388 c 0,0 22.05571,5.15836 25.90661,7.07297 3.85089,1.9146 20.94697,8.75549 24.31429,10.23962 3.36733,1.48412 12.48072,4.8982 24.4119,0.94826 11.9312,-3.94993 41.68344,-26.77522 41.68344,-26.77522 0,0 29.90842,-23.53673 35.67771,-30.93184 5.76927,-7.39511 12.86457,-11.74047 6.1477,-20.85347 -6.71685,-9.11299 -8.81282,-10.2736 -15.58496,-6.84714 -6.77217,3.42646 -29.23662,19.43657 -29.23662,19.43657 z"
             id="path5"
             sodipodi:nodetypes="csccsssssccssscsssc" /><path
             id="path6"
             style="opacity:1;fill:#123e6d;fill-opacity:1;stroke:#fcfcfc;stroke-width:0.0613465;stroke-linejoin:round"
             d="m 143.65752,175.62122 c 13.00418,0.0249 24.79996,0.13592 29.25575,0.42725 11.88211,0.77691 14.84132,12.19634 14.84132,12.19634 0,0 -0.0144,51.59567 -0.60279,58.88483 -0.58837,7.28917 -15.73527,11.51667 -15.73527,11.51667 l -32.31347,0.27997 v -83.30281 c 1.52374,7.1e-4 3.05349,-0.005 4.55446,-0.002 z" /><path
             style="fill:#123e6d;fill-opacity:1;stroke:#fcfcfc;stroke-width:0.0499999;stroke-linejoin:round"
             d="m 470.82824,281.02328 c 0,0 -0.56131,-0.18956 -0.68185,2.9397 -0.12055,3.12926 -0.40542,3.89196 -0.40542,3.89196 0,0 -22.45312,-5.5985 -30.65212,-6.19857 -7.46289,-0.54619 -14.94824,1.09712 -24.49654,6.62557 -9.5483,5.52845 -28.0415,3.80603 -28.0415,3.80603 0,0 -14.52314,0.63451 -15.72906,5.41593 -1.20591,4.78142 -3.07967,10.35754 6.03801,12.27524 9.11767,1.91771 34.00808,4.75923 37.12154,4.67003 2.73544,-0.0784 9.5172,-0.0651 9.5172,-0.0651 0,0 3.78833,-0.93913 4.59649,2.23334 0.61594,2.4179 -1.8045,5.13669 -4.45782,4.81193 -2.65332,-0.32476 -35.41359,0.27395 -46.58776,-4.15245 -11.17417,-4.42639 -13.65718,-8.70449 -14.05863,-10.61574 -0.40143,-1.91124 -1.63367,-10.06143 2.50594,-14.4013 4.13965,-4.33987 11.56042,-6.8094 20.93153,-7.07803 9.37115,-0.26863 14.43026,1.475 28.25547,-4.49928 13.82522,-5.97428 18.9149,-8.31145 34.45878,-5.33443 15.54388,2.97702 21.68574,5.6752 21.68574,5.6752 z"
             id="path4"
             transform="matrix(-1,0,0,1,664.52367,-94.639896)"
             sodipodi:nodetypes="cscsscssscssssssssc" /></g><rect
           style="fill:#123e6d;fill-opacity:1;stroke:#123e6d;stroke-width:0.162037;stroke-linejoin:bevel;stroke-dasharray:none;stroke-opacity:1"
           id="rect6"
           width="6.2500882"
           height="134.23473"
           x="327.81284"
           y="505.32269" /><rect
           style="fill:#123e6d;fill-opacity:1;stroke:#123e6d;stroke-width:0.189462;stroke-linejoin:bevel;stroke-dasharray:none;stroke-opacity:1"
           id="rect6-4"
           width="6.5610638"
           height="174.82028"
           x="114.39091"
           y="482.64343" /><rect
           style="fill:#123e6d;fill-opacity:1;stroke:#123e6d;stroke-width:0.110038;stroke-linejoin:bevel;stroke-dasharray:none;stroke-opacity:1"
           id="rect6-4-2-7"
           width="6.3020868"
           height="61.394306"
           x="300.5347"
           y="523.16132" /><rect
           style="fill:#123e6d;fill-opacity:1;stroke:#123e6d;stroke-width:0.172717;stroke-linejoin:bevel;stroke-dasharray:none;stroke-opacity:1"
           id="rect6-4-2-7-0"
           width="6.2394075"
           height="152.77544"
           x="148.53326"
           y="417.59042" /></g></g></g><g
     inkscape:groupmode="layer"
     id="layer13"
     inkscape:label="Layer 2" /><g
     inkscape:groupmode="layer"
     id="layer14"
     inkscape:label="Layer 3" /><g
     inkscape:groupmode="layer"
     id="layer15"
     inkscape:label="Layer 4" /><g
     inkscape:groupmode="layer"
     id="layer16"
     inkscape:label="Layer 5" /></svg>
