<?xml version="1.0" encoding="UTF-8" standalone="no"?>
<!-- Created with Inkscape (http://www.inkscape.org/) -->

<svg
   width="745mm"
   height="512mm"
   viewBox="0 0 745 512"
   version="1.1"
   id="svg1"
   xml:space="preserve"
   inkscape:export-filename="hris.svg"
   inkscape:export-xdpi="96"
   inkscape:export-ydpi="96"
   sodipodi:docname="hris.svg"
   inkscape:version="1.3 (0e150ed, 2023-07-21)"
   xmlns:inkscape="http://www.inkscape.org/namespaces/inkscape"
   xmlns:sodipodi="http://sodipodi.sourceforge.net/DTD/sodipodi-0.dtd"
   xmlns="http://www.w3.org/2000/svg"
   xmlns:svg="http://www.w3.org/2000/svg"><sodipodi:namedview
     id="namedview1"
     pagecolor="#ffffff"
     bordercolor="#000000"
     borderopacity="0.25"
     inkscape:showpageshadow="2"
     inkscape:pageopacity="0.0"
     inkscape:pagecheckerboard="0"
     inkscape:deskcolor="#d1d1d1"
     inkscape:document-units="mm"
     showgrid="true"
     inkscape:zoom="0.22627417"
     inkscape:cx="1535.7475"
     inkscape:cy="850.73785"
     inkscape:window-width="1600"
     inkscape:window-height="851"
     inkscape:window-x="0"
     inkscape:window-y="28"
     inkscape:window-maximized="1"
     inkscape:current-layer="layer1-2"><inkscape:grid
       id="grid67"
       units="mm"
       originx="0"
       originy="0"
       spacingx="0.99999999"
       spacingy="0.99999997"
       empcolor="#0099e5"
       empopacity="0.30196078"
       color="#0099e5"
       opacity="0.14901961"
       empspacing="5"
       dotted="false"
       gridanglex="30"
       gridanglez="30"
       visible="true" /></sodipodi:namedview><defs
     id="defs1" /><g
     inkscape:label="Layer 1"
     inkscape:groupmode="layer"
     id="layer1"><g
       style="enable-background:new"
       id="g1"
       transform="matrix(0.74056976,0,0,0.74056976,104.77757,29.373659)"><g
         inkscape:label="Layer 1"
         id="layer1-2"
         transform="translate(107.87613,-443.52486)"
         style="opacity:1"><g
           transform="scale(0.99730031,1.002707)"
           style="font-style:normal;font-variant:normal;font-weight:normal;font-stretch:normal;font-size:55.2433px;line-height:124%;font-family:'URW Gothic L';-inkscape-font-specification:'URW Gothic L';letter-spacing:0px;word-spacing:0px;fill:#005daa;fill-opacity:1;stroke:#005daa;stroke-width:2;stroke-linecap:butt;stroke-linejoin:miter;stroke-miterlimit:4;stroke-dasharray:none;stroke-opacity:1"
           id="text4246" /><text
           xml:space="preserve"
           style="font-style:normal;font-weight:normal;line-height:0%;font-family:sans-serif;letter-spacing:0px;word-spacing:0px;fill:#000000;fill-opacity:1;stroke:none;stroke-width:1px;stroke-linecap:butt;stroke-linejoin:miter;stroke-opacity:1"
           x="607.93494"
           y="523.50122"
           id="text4212"><tspan
             sodipodi:role="line"
             id="tspan4214"
             x="607.93494"
             y="523.50122"
             style="font-size:28.3465px;line-height:1.24"> </tspan></text><text
           xml:space="preserve"
           style="font-size:42.8724px;opacity:1;fill:#12437b;fill-opacity:1;stroke:#12437b;stroke-width:0.519552;stroke-opacity:0.952941"
           x="250.14131"
           y="995.96191"
           id="text67"><tspan
             sodipodi:role="line"
             id="tspan67"
             style="font-style:normal;font-variant:normal;font-weight:600;font-stretch:normal;font-size:42.8724px;font-family:FreeSans;-inkscape-font-specification:'FreeSans Semi-Bold';text-align:center;text-anchor:middle;stroke-width:0.519552"
             x="250.14131"
             y="995.96191">HUMAN RESOURCE INFORMATION SYSTEM</tspan></text><g
           style="enable-background:new"
           id="g69"
           transform="matrix(1.3224421,0,0,1.3224421,-144.61714,260.18412)"><g
             inkscape:label="Layer 1"
             id="layer1-4"
             transform="translate(0,-452.36216)"
             style="opacity:1"><g
               transform="scale(0.99730031,1.002707)"
               style="font-style:normal;font-variant:normal;font-weight:normal;font-stretch:normal;font-size:55.2433px;line-height:124%;font-family:'URW Gothic L';-inkscape-font-specification:'URW Gothic L';letter-spacing:0px;word-spacing:0px;fill:#005daa;fill-opacity:1;stroke:#005daa;stroke-width:2;stroke-linecap:butt;stroke-linejoin:miter;stroke-miterlimit:4;stroke-dasharray:none;stroke-opacity:1"
               id="text4246-30" /><path
               style="opacity:1;fill:#917c6f;fill-opacity:1;fill-rule:evenodd;stroke:#ff7200;stroke-width:0;stroke-linecap:butt;stroke-linejoin:miter;stroke-miterlimit:4;stroke-dasharray:none;stroke-opacity:1;enable-background:new"
               d="m 300.81811,644.55802 a 45.437766,45.437766 0 0 0 -45.43691,45.43689 45.437766,45.437766 0 0 0 45.43691,45.43904 45.437766,45.437766 0 0 0 45.43904,-45.43904 45.437766,45.437766 0 0 0 -45.43904,-45.43689 z m 0,98.26766 a 94.44929,66.880308 0 0 0 -94.44776,66.88063 94.44929,66.880308 0 0 0 0.22457,3.5932 94.44929,45.437766 0 0 0 -0.22457,2.16448 94.44929,45.437766 0 0 0 94.44776,45.43905 94.44929,45.437766 0 0 0 94.4499,-45.43905 94.44929,45.437766 0 0 0 -0.20961,-2.81895 94.44929,66.880308 0 0 0 0.20961,-2.93873 94.44929,66.880308 0 0 0 -94.4499,-66.88063 z"
               id="path4206"
               inkscape:connector-curvature="0" /><path
               style="opacity:1;fill:#666666;fill-opacity:1;fill-rule:evenodd;stroke:#ff7200;stroke-width:0;stroke-linecap:butt;stroke-linejoin:miter;stroke-miterlimit:4;stroke-dasharray:none;stroke-opacity:1;enable-background:new"
               d="m 161.60742,212.8457 a 38.708416,38.708416 0 0 0 -38.70898,38.70703 38.708416,38.708416 0 0 0 32.70898,38.2168 38.708416,38.708416 0 0 0 6,0.49219 38.708416,38.708416 0 0 0 17.08985,-4.0293 122.5976,122.5976 0 0 1 0.22851,-1.83203 122.5976,122.5976 0 0 1 2.71875,-11.94922 122.5976,122.5976 0 0 1 3.89649,-11.61719 122.5976,122.5976 0 0 1 5.03906,-11.17187 122.5976,122.5976 0 0 1 6.12695,-10.61328 122.5976,122.5976 0 0 1 0,-0.002 122.5976,122.5976 0 0 1 0.98828,-1.375 38.708416,38.708416 0 0 0 -14.65234,-18.31836 38.708416,38.708416 0 0 0 -21.43555,-6.50782 z m 2,83.71289 a 80.461315,59.630319 0 0 0 -8.67773,0.3711 80.461315,59.630319 0 0 0 -71.783206,59.25976 80.461315,59.630319 0 0 0 0.191407,3.20313 80.461315,40.512201 0 0 0 -0.191407,1.92969 80.461315,40.512201 0 0 0 80.460936,40.51562 80.461315,40.512201 0 0 0 25.68946,-2.18555 80.461315,40.512201 0 0 0 24.37695,-6.72265 122.5976,122.5976 0 0 1 -5.65039,-5.92383 122.5976,122.5976 0 0 1 -7.66992,-9.55859 122.5976,122.5976 0 0 1 -6.67774,-10.27149 122.5976,122.5976 0 0 1 -5.61914,-10.89062 122.5976,122.5976 0 0 1 0,-0.002 122.5976,122.5976 0 0 1 -4.50391,-11.39648 122.5976,122.5976 0 0 1 0,-0.002 122.5976,122.5976 0 0 1 -3.3457,-11.78907 122.5976,122.5976 0 0 1 -2.14648,-12.0625 122.5976,122.5976 0 0 1 -0.9375,-12.21875 122.5976,122.5976 0 0 1 0,-0.002 122.5976,122.5976 0 0 1 0.26757,-11.28125 80.461315,59.630319 0 0 0 -13.7832,-0.97266 z"
               transform="translate(0,452.36216)"
               id="path4310" /><path
               style="opacity:1;fill:#6c5353;fill-opacity:1;fill-rule:evenodd;stroke:#ff7200;stroke-width:0;stroke-linecap:butt;stroke-linejoin:miter;stroke-miterlimit:4;stroke-dasharray:none;stroke-opacity:1;enable-background:new"
               d="m 437.60742,212.8457 a 38.708416,38.708416 0 0 0 -21.46289,6.51758 38.708416,38.708416 0 0 0 -14.63086,18.21289 122.5976,122.5976 0 0 1 4.16992,6.41797 122.5976,122.5976 0 0 1 5.61914,10.88867 122.5976,122.5976 0 0 1 4.50196,11.39844 122.5976,122.5976 0 0 1 3.3457,11.78906 122.5976,122.5976 0 0 1 1.46875,8.23438 38.708416,38.708416 0 0 0 16.98828,3.95703 38.708416,38.708416 0 0 0 6.09766,-0.53125 38.708416,38.708416 0 0 0 32.61133,-38.17774 38.708416,38.708416 0 0 0 -38.70899,-38.70703 z m 0,82.74414 a 80.461315,59.630317 0 0 0 -15.80078,1.17578 122.5976,122.5976 0 0 1 0.42774,5.5879 122.5976,122.5976 0 0 1 -0.29102,12.25195 122.5976,122.5976 0 0 1 -1.50977,12.16015 122.5976,122.5976 0 0 1 -2.7207,11.94922 122.5976,122.5976 0 0 1 -3.89453,11.61914 122.5976,122.5976 0 0 1 -5.03711,11.17188 122.5976,122.5976 0 0 1 -6.12891,10.61133 122.5976,122.5976 0 0 1 -0.002,0.002 122.5976,122.5976 0 0 1 -7.1543,9.94727 122.5976,122.5976 0 0 1 -8.11523,9.18164 122.5976,122.5976 0 0 1 -0.002,0.002 122.5976,122.5976 0 0 1 -0.48633,0.46289 80.461315,40.512199 0 0 0 44.30273,8.98242 80.461315,40.512199 0 0 0 6.41211,0.17383 80.461315,40.512199 0 0 0 80.46094,-40.51562 80.461315,40.512199 0 0 0 -0.17774,-2.51172 80.461315,59.630317 0 0 0 0.17774,-2.6211 80.461315,59.630317 0 0 0 -73.84961,-59.39843 80.461315,59.630317 0 0 0 -6.61133,-0.23243 z"
               transform="translate(0,452.36216)"
               id="path4333" /><path
               style="opacity:1;fill:#ffb278;fill-opacity:1;fill-rule:evenodd;stroke:#ff7200;stroke-width:0;stroke-linecap:butt;stroke-linejoin:miter;stroke-miterlimit:4;stroke-dasharray:none;stroke-opacity:1;enable-background:new"
               d="m 306.12891,612.98521 a 145.10271,145.10271 0 0 0 -102.81836,36.48047 145.10271,145.10271 0 0 0 -12.11133,204.84762 145.10271,145.10271 0 0 0 176.87695,31.4141 c 1.10262,2.6252 2.64287,5.1237 4.64453,7.3769 l 36.63086,41.2344 39.66992,44.6563 a 47.319183,47.319183 0 0 0 2.85547,0.4316 47.319183,47.319183 0 0 0 4.72461,0.2363 47.319183,47.319183 0 0 0 3.34571,-0.1191 47.319183,47.319183 0 0 0 4.69726,-0.5703 47.319183,47.319183 0 0 0 4.61524,-1.0352 47.319183,47.319183 0 0 0 4.48828,-1.4922 47.319183,47.319183 0 0 0 4.3164,-1.9316 47.319183,47.319183 0 0 0 4.10352,-2.3535 47.319183,47.319183 0 0 0 3.84765,-2.752 47.319183,47.319183 0 0 0 3.55274,-3.1211 47.319183,47.319183 0 0 0 3.22461,-3.4609 47.319183,47.319183 0 0 0 2.86133,-3.7656 47.319183,47.319183 0 0 0 2.47265,-4.0313 47.319183,47.319183 0 0 0 2.0586,-4.2597 47.319183,47.319183 0 0 0 1.62109,-4.4434 47.319183,47.319183 0 0 0 1.16992,-4.582 47.319183,47.319183 0 0 0 0.70703,-4.6778 47.319183,47.319183 0 0 0 0.11329,-2.2832 l -44.06446,-49.6035 -34.44531,-38.7734 c -2.00122,-2.2528 -4.29703,-4.0783 -6.77344,-5.4824 A 145.10271,145.10271 0 0 0 408.16016,661.577 145.10271,145.10271 0 0 0 306.12891,612.98521 Z m -9.68164,22.40429 a 122.5976,122.5976 0 0 1 0.002,0 122.5976,122.5976 0 0 1 12.2539,0.29102 122.5976,122.5976 0 0 1 12.16016,1.51172 122.5976,122.5976 0 0 1 11.94727,2.71875 122.5976,122.5976 0 0 1 11.61914,3.89648 122.5976,122.5976 0 0 1 11.16992,5.03711 122.5976,122.5976 0 0 1 10.61523,6.12891 122.5976,122.5976 0 0 1 9.94727,7.15625 122.5976,122.5976 0 0 1 9.18359,8.11523 122.5976,122.5976 0 0 1 5.98828,6.2793 122.5976,122.5976 0 0 1 7.67188,9.55664 122.5976,122.5976 0 0 1 6.67773,10.27539 122.5976,122.5976 0 0 1 5.61914,10.88867 122.5976,122.5976 0 0 1 4.50196,11.39844 122.5976,122.5976 0 0 1 3.3457,11.78906 122.5976,122.5976 0 0 1 2.15039,12.06641 122.5976,122.5976 0 0 1 0.9336,12.21682 122.5976,122.5976 0 0 1 -0.29102,12.2519 122.5976,122.5976 0 0 1 -1.50977,12.1602 122.5976,122.5976 0 0 1 -2.7207,11.9492 122.5976,122.5976 0 0 1 -3.89453,11.6191 122.5976,122.5976 0 0 1 -5.03711,11.1719 122.5976,122.5976 0 0 1 -6.13086,10.6133 122.5976,122.5976 0 0 1 -7.1543,9.9473 122.5976,122.5976 0 0 1 -8.11718,9.1836 122.5976,122.5976 0 0 1 -6.27735,5.9902 122.5976,122.5976 0 0 1 -9.55664,7.668 122.5976,122.5976 0 0 1 -10.27539,6.6797 122.5976,122.5976 0 0 1 -10.89062,5.6171 122.5976,122.5976 0 0 1 -11.39649,4.5059 122.5976,122.5976 0 0 1 -11.78906,3.3438 122.5976,122.5976 0 0 1 -12.06641,2.1503 122.5976,122.5976 0 0 1 -12.21875,0.9336 122.5976,122.5976 0 0 1 -12.25,-0.289 122.5976,122.5976 0 0 1 -12.16211,-1.5137 122.5976,122.5976 0 0 1 -11.94921,-2.7187 122.5976,122.5976 0 0 1 -11.61915,-3.8946 122.5976,122.5976 0 0 1 -11.17187,-5.039 122.5976,122.5976 0 0 1 -10.61133,-6.1289 122.5976,122.5976 0 0 1 -9.94726,-7.1563 122.5976,122.5976 0 0 1 -9.1836,-8.1133 122.5976,122.5976 0 0 1 -5.99023,-6.2793 122.5976,122.5976 0 0 1 -7.66992,-9.5586 122.5976,122.5976 0 0 1 -6.67774,-10.2715 122.5976,122.5976 0 0 1 -5.61914,-10.8925 122.5976,122.5976 0 0 1 -4.50391,-11.3985 122.5976,122.5976 0 0 1 -3.3457,-11.789 122.5976,122.5976 0 0 1 -2.14648,-12.0625 122.5976,122.5976 0 0 1 -0.9375,-12.2207 122.5976,122.5976 0 0 1 0.29101,-12.25199 122.5976,122.5976 0 0 1 1.51172,-12.16016 122.5976,122.5976 0 0 1 2.71875,-11.94922 122.5976,122.5976 0 0 1 3.89649,-11.61719 122.5976,122.5976 0 0 1 5.03906,-11.17187 122.5976,122.5976 0 0 1 6.12695,-10.61523 122.5976,122.5976 0 0 1 7.15625,-9.94532 122.5976,122.5976 0 0 1 8.11524,-9.18359 122.5976,122.5976 0 0 1 6.27929,-5.98828 122.5976,122.5976 0 0 1 9.55664,-7.67188 122.5976,122.5976 0 0 1 10.27539,-6.67773 122.5976,122.5976 0 0 1 10.88868,-5.61914 122.5976,122.5976 0 0 1 11.39843,-4.50391 122.5976,122.5976 0 0 1 11.78907,-3.3457 122.5976,122.5976 0 0 1 12.0625,-2.14844 122.5976,122.5976 0 0 1 12.21875,-0.93555 z"
               id="path4288"
               inkscape:connector-curvature="0" /></g></g></g></g></g></svg>
